<svg width="324" height="257" viewBox="0 0 324 257" fill="none" xmlns="http://www.w3.org/2000/svg">
<path d="M61.0531 130.159C67.2737 67.3388 121.877 21.6442 183.084 28.0184C244.215 34.3926 288.758 90.4548 282.537 153.275C276.317 216.096 221.714 261.867 160.583 255.493C99.3751 249.119 54.8325 192.98 61.0531 130.159Z" fill="#FAE8CB"/>
<path d="M0 70.4109C0 33.0105 29.5671 2.75232 65.8923 2.75232C102.294 2.75232 131.785 33.0105 131.785 70.4109C131.785 107.811 102.294 138.07 65.8923 138.07C29.5671 138.07 0 107.811 0 70.4109Z" fill="#F8E5C9"/>
<path d="M285.61 189.294C283.23 178.619 289.681 168.097 300.048 165.717C310.339 163.259 320.63 169.864 323.011 180.539C325.315 191.137 318.864 201.658 308.573 204.115C298.205 206.496 287.914 199.892 285.61 189.294Z" fill="#F8E5C9"/>
<path d="M287.993 118.409L278.163 121.02L276.243 113.878L285.996 111.19L287.993 118.409Z" fill="#EA7180"/>
<path d="M293.905 107.274L297.207 118.486L286.686 121.635L283.307 110.422L293.905 107.274Z" fill="#F3BD55"/>
<path d="M295.595 81.316L305.963 115.875L291.448 120.252L288.069 108.963L292.37 93.6036C292.6 90.9925 289.989 83.0056 292.447 82.2376L295.595 81.316Z" fill="#3D3B46"/>
<path d="M298.818 80.3944L309.186 114.953L305.96 115.875L295.593 81.316L298.818 80.3944Z" fill="#F3BD55"/>
<path d="M278.927 101.13L279.234 100.669C278.927 100.439 278.62 100.131 278.389 99.8241C278.159 99.5169 278.082 99.2097 278.082 99.0561C278.082 98.9025 278.082 98.749 278.236 98.6722C278.313 98.5954 278.389 98.5186 278.466 98.4418C278.62 98.365 278.773 98.365 279.004 98.365C279.311 98.365 279.695 98.4418 280.002 98.5186C283.535 99.5937 287.682 101.898 289.525 105.046L289.986 104.739L289.909 104.202C289.448 104.278 288.987 104.355 288.527 104.355C285.455 104.355 281.615 102.435 279.234 100.669L278.927 101.13L278.62 101.514C281.154 103.357 284.994 105.43 288.527 105.43C289.064 105.43 289.602 105.354 290.139 105.277C290.293 105.2 290.446 105.123 290.446 104.97C290.523 104.816 290.523 104.586 290.446 104.432C288.373 100.976 283.996 98.5954 280.309 97.5202C279.925 97.3666 279.464 97.2898 279.004 97.2898C278.696 97.2898 278.389 97.3666 278.082 97.4434C277.852 97.5202 277.545 97.7506 277.391 97.981C277.084 98.2882 277.007 98.6722 277.007 99.0561C277.007 99.5937 277.237 100.055 277.545 100.439C277.852 100.899 278.236 101.283 278.62 101.514L278.927 101.13Z" fill="#394046"/>
<path d="M285.149 94.2181L285.687 94.0645C285.61 93.9109 285.61 93.6805 285.61 93.4501C285.61 92.9893 285.687 92.6053 285.841 92.2981C285.917 92.0678 286.071 91.991 286.301 91.9142H286.378C286.609 91.9142 286.839 91.991 287.069 92.2213C287.3 92.4517 287.53 92.7589 287.684 93.0661C289.066 95.6004 290.295 98.9795 290.295 102.051C290.295 102.819 290.218 103.664 289.988 104.355L290.525 104.509L290.832 104.048C289.373 103.203 288.221 101.591 287.377 99.6707C286.532 97.8276 285.917 95.754 285.687 94.0645L285.149 94.2181L284.612 94.2949C284.919 96.0612 285.533 98.2116 286.455 100.131C287.3 102.128 288.605 103.895 290.218 104.97C290.372 105.047 290.602 105.047 290.756 104.97C290.909 104.893 290.986 104.816 291.063 104.586C291.216 103.818 291.37 102.896 291.37 102.051C291.293 98.7491 290.064 95.2165 288.605 92.5285C288.375 92.2213 288.145 91.7606 287.761 91.4534C287.453 91.1462 286.993 90.839 286.378 90.839H286.148C285.533 90.9158 285.073 91.3766 284.842 91.8374C284.612 92.3749 284.535 92.9125 284.535 93.4501C284.535 93.6805 284.535 93.9877 284.612 94.2949L285.149 94.2181Z" fill="#394046"/>
<path d="M150.063 185.146L144.534 175.47L183.47 129.468C186.926 125.321 191.764 122.71 196.987 121.865L279.774 109.731L283.921 123.785L205.281 146.747C191.534 165.409 182.318 177.62 176.098 185.684C169.493 194.285 156.361 194.055 150.063 185.146Z" fill="#374B8A"/>
<path d="M278.621 114.032L199.826 124.553C195.833 125.091 192.223 127.087 189.689 130.159L150.983 176.929C150.83 177.083 150.83 177.313 151.06 177.467C151.214 177.62 151.444 177.62 151.598 177.39L190.303 130.697C192.684 127.702 196.14 125.859 199.903 125.321L278.697 114.877C278.928 114.8 279.081 114.646 279.081 114.416C279.005 114.185 278.851 114.032 278.621 114.032Z" fill="#FEFEFE"/>
<path d="M145.223 188.372L141.229 184.071L203.666 125.782C208.274 121.481 215.569 121.711 219.87 126.319L230.698 137.916L175.635 189.37C166.956 197.511 153.286 197.05 145.223 188.372Z" fill="#5064AC"/>
<path d="M203.742 138.223L153.363 186.759C153.21 186.913 153.21 187.143 153.363 187.297C153.517 187.45 153.747 187.45 153.901 187.297L204.28 138.837C204.434 138.684 204.434 138.377 204.28 138.223C204.126 138.07 203.896 138.07 203.742 138.223Z" fill="#FEFEFE"/>
<path d="M181.012 86.4615C181.012 82.0841 184.468 78.5514 188.845 78.4746C193.223 78.4746 196.755 81.9305 196.832 86.308C196.832 90.6854 193.3 94.2181 188.999 94.2949C184.621 94.2949 181.089 90.839 181.012 86.4615Z" fill="#EA7180"/>
<path d="M185.85 101.975L178.401 97.981L183.316 88.9189L190.765 92.9124L185.85 101.975Z" fill="#EA7180"/>
<path d="M189.999 79.7034L193.07 74.4044C193.608 73.4828 193.301 72.4076 192.379 71.87C191.535 71.4093 190.459 71.7164 189.922 72.5612L186.85 77.9371C186.312 78.7818 186.619 79.9338 187.541 80.3946C188.386 80.9322 189.538 80.625 189.999 79.7034Z" fill="#EA7180"/>
<path d="M192.837 82.6215L195.909 77.2456C196.37 76.4008 196.14 75.2489 195.218 74.7881C194.373 74.2505 193.221 74.5577 192.761 75.4025L189.689 80.7783C189.151 81.6231 189.458 82.775 190.303 83.2358C191.225 83.7734 192.3 83.4662 192.837 82.6215Z" fill="#EA7180"/>
<path d="M194.373 86.0776L197.522 80.7018C197.983 79.857 197.675 78.705 196.831 78.2443C195.909 77.7067 194.834 78.0139 194.296 78.9354L191.224 84.2345C190.764 85.156 191.071 86.2312 191.916 86.7688C192.76 87.2296 193.912 86.9224 194.373 86.0776Z" fill="#EA7180"/>
<path d="M196.064 89.6102L199.136 84.2344C199.674 83.3896 199.366 82.2376 198.445 81.7768C197.6 81.2393 196.448 81.5464 195.987 82.3912L192.915 87.7671C192.378 88.6118 192.685 89.7638 193.607 90.2246C194.451 90.7622 195.527 90.455 196.064 89.6102Z" fill="#EA7180"/>
<path d="M179.245 86.1543C179.245 84.388 180.627 83.0056 182.393 82.9288C184.16 82.9288 185.542 84.3112 185.542 86.0775C185.542 87.8439 184.16 89.2262 182.47 89.303C180.704 89.303 179.245 87.9207 179.245 86.1543Z" fill="#EA7180"/>
<path d="M188.233 90.3782L195.375 86.6152C196.603 85.924 197.064 84.388 196.45 83.1593L188.77 68.7981C188.156 67.5694 186.543 67.1086 185.314 67.723L178.172 71.5629C176.943 72.1772 176.482 73.79 177.097 75.0187L184.777 89.3031C185.391 90.6086 187.004 91.0694 188.233 90.3782Z" fill="#3D3B46"/>
<path d="M189.615 76.7081L192.456 75.0954C193.301 74.5578 193.608 73.4058 193.071 72.561C192.61 71.7162 191.458 71.4091 190.613 71.9466L187.772 73.6362C186.927 74.097 186.62 75.249 187.157 76.0937C187.618 76.9385 188.77 77.2457 189.615 76.7081Z" fill="#EA7180"/>
<path d="M191.148 80.3178L195.372 77.8603C196.216 77.3227 196.524 76.2475 195.986 75.4028C195.449 74.4812 194.373 74.2508 193.452 74.7116L189.305 77.1691C188.46 77.7067 188.153 78.8587 188.69 79.7034C189.151 80.5482 190.303 80.8554 191.148 80.3178Z" fill="#EA7180"/>
<path d="M193.684 83.2361L196.909 81.3161C197.754 80.8553 198.061 79.7034 197.524 78.8586C197.063 77.937 195.911 77.7066 195.066 78.1674L191.841 80.0873C190.996 80.6249 190.689 81.7001 191.226 82.6217C191.764 83.4664 192.839 83.7736 193.684 83.2361Z" fill="#EA7180"/>
<path d="M196.602 85.8473L198.522 84.6953C199.366 84.2345 199.674 83.0826 199.136 82.2378C198.675 81.393 197.523 81.0858 196.678 81.6234L194.758 82.6986C193.837 83.2361 193.607 84.3881 194.067 85.2329C194.605 86.0777 195.757 86.3848 196.602 85.8473Z" fill="#EA7180"/>
<path d="M182.856 86.1542L182.779 80.0104C182.779 78.9352 181.934 78.1672 180.936 78.1672C179.938 78.1672 179.17 79.012 179.17 80.0104V86.1542C179.17 87.1526 180.014 87.9973 181.013 87.9973C182.011 87.9973 182.856 87.1526 182.856 86.1542Z" fill="#EA7180"/>
<path d="M167.802 140.68L124.565 126.473L127.867 116.336C129.019 112.726 132.859 110.806 136.392 112.035L164.039 121.097L178.016 92.8356L190.15 98.4418L177.402 135.919C176.02 139.836 171.796 141.986 167.802 140.68Z" fill="#D7A149"/>
<path d="M188.846 106.275L173.179 99.2099L176.789 91.0693L192.532 98.1347L188.846 106.275Z" fill="#F3BD55"/>
<path d="M136.391 84.772C137.85 91.7605 136.929 99.5939 132.398 105.123C126.868 111.651 117.653 113.417 110.51 118.025C101.909 123.632 96.61 133.231 88.1623 138.914C77.4106 146.287 61.3599 145.596 52.221 136.303C43.0053 127.011 43.2357 109.654 53.4498 101.591C58.0576 97.9811 64.355 95.9844 67.0429 90.7622C70.8828 83.4664 65.8142 72.5612 72.0348 67.1085C77.1802 62.5775 85.0136 65.9566 91.4645 68.0301C102.139 71.3324 110.818 69.0285 121.185 66.4942C131.169 64.0366 134.548 76.0939 136.391 84.772Z" fill="#28293A"/>
<path d="M114.659 116.489L125.027 114.953L122.492 97.2131L112.125 98.6723L114.659 116.489Z" fill="#EA7180"/>
<path d="M129.479 73.0219L108.82 76.017L112.276 100.055L122.797 98.5954C128.403 97.7506 132.243 92.5284 131.475 86.9222L129.479 73.0219Z" fill="#EA7180"/>
<path d="M112.279 100.055L112.97 104.739C113.892 104.97 114.89 104.97 115.889 104.816C118.807 104.432 121.111 102.512 122.34 100.055C122.493 99.6707 122.647 99.2868 122.724 98.9028V98.5956L112.279 100.055Z" fill="#B7566A"/>
<path d="M102.448 77.0923L104.292 89.5335C105.597 89.4567 106.979 89.3799 108.362 89.1495C119.113 87.6136 127.484 81.2394 129.635 73.6364C130.556 70.4109 128.406 67.0318 125.104 66.6478C124.873 66.6478 124.643 66.6478 124.566 66.6478L109.514 68.7982C105.06 69.4125 101.911 73.1756 102.448 77.0923Z" fill="#28293A"/>
<path d="M119.111 85.6168C118.881 83.7736 117.191 82.5449 115.425 82.7753C113.582 83.0825 112.353 84.772 112.584 86.5383C112.891 88.3047 114.504 89.6102 116.347 89.3031C118.113 89.0727 119.342 87.3831 119.111 85.6168Z" fill="#EA7180"/>
<path d="M131.322 85.0793L132.167 84.9257C132.935 84.8489 133.396 84.0809 133.319 83.3897C133.242 82.6218 132.474 82.0842 131.783 82.161L130.938 82.3146C130.17 82.3914 129.709 83.0826 129.786 83.8505C129.863 84.6185 130.631 85.1561 131.322 85.0793Z" fill="#EA7180"/>
<path d="M169.261 156.501L145.684 183.61C144.225 185.223 141.691 184.916 140.692 182.996L132.782 173.243C125.025 163.566 118.958 152.584 114.965 140.834C114.12 138.53 113.352 136.073 112.738 133.692L109.128 120.329C107.9 117.334 109.743 113.878 112.968 113.264L122.414 111.344L122.798 111.267L130.478 109.731C130.478 109.731 150.292 116.028 149.14 128.623L153.671 141.064L169.261 156.501Z" fill="#F3BD55"/>
<path d="M123.413 132.693C121.723 136.303 118.574 139.528 114.965 140.834C114.12 138.53 113.352 136.073 112.738 133.692L109.128 120.329C107.9 117.334 109.743 113.878 112.968 113.264L122.414 111.344C125.717 118.102 126.485 125.935 123.413 132.693Z" fill="#D7A149"/>
<path d="M107.518 32.9338L99.0699 31.705L100.606 20.9534L109.054 22.1821L107.518 32.9338Z" fill="#EA7180"/>
<path d="M115.122 10.2016C114.123 9.97117 113.125 10.5856 112.741 11.5071L111.742 14.0414C111.282 13.8878 110.821 13.811 110.437 13.7343L112.05 4.36496C112.203 3.52019 111.819 2.67541 111.051 2.44502C109.976 2.06103 108.978 2.67541 108.747 3.67378L107.749 9.43359L108.671 2.67541C108.747 1.67705 107.903 0.832275 107.135 0.832275C105.445 0.832275 105.291 1.90744 105.215 2.90581L103.909 12.8127H103.679L100.837 4.97934C100.53 4.21136 99.762 3.67378 98.9173 3.82738C97.8421 3.98097 97.2277 5.05614 97.6117 6.0545L98.4565 8.43523C97.9189 7.89764 96.9973 7.82085 96.3061 8.35843C95.6918 8.81921 95.5382 9.66398 95.7686 10.3552L98.9941 19.0333L99.0709 19.1869C98.9173 20.7228 99.3012 22.4124 100.53 23.9483C101.989 25.8682 104.37 27.0202 106.751 26.7898C110.59 26.5594 112.587 23.4107 113.816 20.1852C114.661 18.1885 116.657 13.0431 116.657 13.0431C117.195 11.8911 116.504 10.432 115.122 10.2016Z" fill="#EA7180"/>
<path d="M97.9916 8.66525L100.219 14.5019C100.372 14.8091 100.679 14.9627 100.91 14.8091C101.217 14.7323 101.371 14.4251 101.217 14.1947L98.9899 8.28127C98.9131 7.97407 98.6059 7.82048 98.2988 7.97407C97.9916 8.05087 97.9148 8.35806 97.9916 8.66525Z" fill="#B7566A"/>
<path d="M107.669 6.05453L106.824 12.2751C106.747 12.5823 106.978 12.8127 107.285 12.8895C107.515 12.8895 107.822 12.7359 107.822 12.4287L108.744 6.20812C108.821 5.90093 108.59 5.67054 108.283 5.59374C107.976 5.51694 107.746 5.74734 107.669 6.05453Z" fill="#B7566A"/>
<path d="M106.52 16.9597C106.904 15.347 108.363 14.2718 109.899 14.2718C110.13 14.2718 110.437 14.2718 110.667 14.3486C110.974 14.4254 111.282 14.195 111.358 13.9646C111.435 13.6574 111.205 13.3503 110.974 13.2735C110.59 13.1967 110.283 13.1967 109.899 13.1967C107.826 13.1967 105.983 14.579 105.445 16.7293C105.445 16.9597 105.599 17.2669 105.906 17.3437C106.136 17.4205 106.443 17.1901 106.52 16.9597Z" fill="#B7566A"/>
<path d="M122.724 122.556C118.961 125.475 113.431 124.783 110.513 120.944L88.0879 91.9909C86.6288 90.0709 85.9376 87.5366 86.3216 85.1559L97.4572 26.8666L109.284 29.6313L104.062 84.1575L124.336 110.345C127.255 114.109 126.563 119.561 122.724 122.556Z" fill="#F3BD55"/>
<path d="M110.972 37.2344L94.5372 34.8537L95.9196 25.4076L112.354 27.7115L110.972 37.2344Z" fill="#FEC769"/>
<path d="M51.1483 35.3144L45.0045 5.51692L79.4866 0.832275L84.7088 26.0219L51.1483 35.3144Z" fill="#5064AC"/>
<path d="M80.2551 22.3359L80.7159 22.1823C87.6277 20.3391 93.6179 17.8816 97.9953 15.2705C100.146 13.9649 101.912 12.5826 103.141 11.277C104.37 9.97145 105.138 8.66589 105.138 7.36033C105.138 7.05314 105.138 6.82275 105.061 6.51556C104.83 5.82438 104.37 5.21 103.755 4.67241C101.912 3.21326 98.5329 2.59888 94.1554 2.59888C89.1636 2.59888 82.8662 3.44365 76.108 5.28679L75.6472 5.44039C75.4168 5.51719 75.1864 5.82438 75.2632 6.05477C75.34 6.36196 75.6472 6.51556 75.9544 6.43876L76.4152 6.28516C83.0198 4.51882 89.2404 3.67404 94.1554 3.67404C96.997 3.67404 99.3777 3.98123 101.067 4.51882C101.912 4.82601 102.603 5.1332 103.064 5.51719C103.602 5.90118 103.909 6.36196 103.986 6.82275C104.062 6.97634 104.062 7.20674 104.062 7.36033C104.062 8.2051 103.525 9.35707 102.373 10.5858C100.683 12.3522 97.7649 14.3489 93.9251 16.1921C90.162 18.0352 85.5541 19.8015 80.4087 21.1839L79.9479 21.3375C79.7175 21.4143 79.5639 21.7215 79.6407 21.9519C79.7175 22.2591 79.9479 22.4127 80.2551 22.3359Z" fill="#3F434F"/>
<path d="M71.8811 5.44016L72.4187 5.51695C72.4955 4.74898 73.1098 4.13461 73.8778 4.13461H73.9546C74.7226 4.2114 75.2602 4.82578 75.2602 5.59375V5.67055C75.2602 6.43852 74.569 7.05289 73.8778 7.05289H73.801C73.033 6.9761 72.4187 6.36172 72.4187 5.59375V5.51695L71.8811 5.44016H71.3435V5.59375C71.3435 6.8993 72.3419 8.05125 73.7242 8.12805H73.8778C75.1834 8.12805 76.2585 7.05289 76.3353 5.74734V5.59375C76.3353 4.2882 75.337 3.21304 74.0314 3.05945H73.8778C72.4955 3.05945 71.4203 4.13461 71.3435 5.44016H71.8811Z" fill="#3F434F"/>
<path d="M76.1842 21.5674L76.7218 21.6442C76.7986 20.8762 77.413 20.2618 78.1809 20.2618H78.2577C79.0257 20.3386 79.5633 20.953 79.5633 21.721V21.7978C79.5633 22.5657 78.8721 23.1801 78.1809 23.1801H78.1041C77.3362 23.1033 76.7218 22.4889 76.7218 21.721V21.6442L76.1842 21.5674H75.6466V21.721C75.6466 23.0265 76.645 24.1017 78.0273 24.1785H78.1809C79.4865 24.1785 80.5617 23.1801 80.6385 21.8746V21.721C80.6385 20.4154 79.6401 19.2634 78.3345 19.1866H78.1809C76.7986 19.1866 75.7234 20.2618 75.6466 21.5674H76.1842Z" fill="#3F434F"/>
<path d="M54.9874 67.4927L32.0249 35.3913L70.4237 11.7377L89.8535 38.924L54.9874 67.4927Z" fill="#4FBCB0"/>
<path d="M82.5597 36.7733L83.0973 36.3894C89.4715 31.1671 94.8473 25.7145 98.6104 20.7227C100.53 18.2651 101.989 15.9612 102.988 13.8109C104.063 11.7374 104.601 9.81742 104.601 8.20467C104.601 7.0527 104.293 5.97754 103.679 5.20956C103.218 4.59518 102.527 4.1344 101.759 3.90401C100.991 3.59682 100.146 3.52002 99.148 3.52002C95.7689 3.52002 91.161 4.97917 85.9388 7.66709C80.7166 10.2782 74.8032 14.1949 68.9665 18.8795L68.429 19.3403C68.1986 19.4939 68.1986 19.8011 68.3522 20.0315C68.5826 20.2619 68.8897 20.3387 69.1201 20.1083L69.5809 19.7243C75.4175 15.0396 81.2542 11.1998 86.3996 8.58865C91.545 5.97754 96.0761 4.51839 99.148 4.51839C100.07 4.51839 100.761 4.67198 101.375 4.90237C101.989 5.13277 102.45 5.43996 102.834 5.90074C103.295 6.43832 103.525 7.2063 103.525 8.20467C103.525 9.58702 103.065 11.3534 102.066 13.3501C99.148 19.4171 91.929 27.788 82.4061 35.5446L81.9453 35.9286C81.7149 36.0822 81.6381 36.4662 81.8685 36.6965C82.0221 36.9269 82.3293 36.9269 82.5597 36.7733Z" fill="#3F434F"/>
<path d="M63.8972 21.2606L64.358 21.0302C64.2812 20.7998 64.2812 20.5694 64.2812 20.339C64.2812 19.4942 64.742 18.7262 65.5868 18.4191C65.8172 18.3423 66.0476 18.3423 66.278 18.3423C67.1227 18.3423 67.8907 18.803 68.1979 19.6478C68.2747 19.8782 68.3515 20.1086 68.3515 20.339C68.3515 21.1838 67.8139 21.9517 66.9691 22.2589C66.7387 22.3357 66.5083 22.4125 66.278 22.4125C65.4332 22.4125 64.6652 21.8749 64.358 21.0302L63.8972 21.2606L63.3596 21.4142C63.8204 22.6429 65.0492 23.4109 66.278 23.4109C66.6619 23.4109 67.0459 23.4109 67.3531 23.2573C68.5819 22.7965 69.3499 21.5677 69.3499 20.339C69.3499 19.955 69.3499 19.6478 69.1963 19.2638C68.7355 18.0351 67.5067 17.2671 66.278 17.2671C65.894 17.2671 65.5868 17.3439 65.2028 17.4207C63.974 17.8815 63.2061 19.1102 63.2061 20.339C63.2061 20.723 63.2829 21.107 63.3596 21.4142L63.8972 21.2606Z" fill="#3F434F"/>
<path d="M77.4113 38.0793L77.9488 37.9257C77.8721 37.6953 77.7953 37.4649 77.7953 37.2345C77.7953 36.3898 78.3328 35.6218 79.1776 35.3146C79.408 35.2378 79.6384 35.161 79.8688 35.161C80.6368 35.161 81.4815 35.6986 81.7887 36.5433C81.8655 36.7737 81.8655 37.0041 81.8655 37.2345C81.8655 38.0793 81.4047 38.8473 80.56 39.1545C80.3296 39.2313 80.0992 39.2313 79.8688 39.2313C79.024 39.2313 78.256 38.7705 77.9488 37.9257L77.4113 38.0793L76.9505 38.3097C77.4113 39.5385 78.5632 40.3064 79.8688 40.3064C80.176 40.3064 80.56 40.2296 80.9439 40.1528C82.1727 39.6921 82.9407 38.4633 82.9407 37.2345C82.9407 36.8505 82.8639 36.4665 82.7871 36.1594C82.3263 34.9306 81.0975 34.0858 79.8688 34.0858C79.4848 34.0858 79.1008 34.1626 78.7936 34.3162C77.5649 34.777 76.7201 35.929 76.7201 37.2345C76.7201 37.5417 76.7969 37.9257 76.9505 38.3097L77.4113 38.0793Z" fill="#3F434F"/>
<path d="M204.051 207.11H233.618V176.698H204.051V207.11Z" fill="#72CAC8"/>
<path d="M204.051 207.11H229.701V176.698H204.051V207.11Z" fill="#4FBCB0"/>
<path d="M204.051 197.588H229.701V186.99H204.051V197.588Z" fill="#72CAC8"/>
<path d="M213.653 189.601L206.203 206.573L178.326 194.209L185.852 177.313L213.653 189.601Z" fill="#EA7180"/>
<path d="M212.731 191.828L206.203 206.573L178.326 194.208L184.854 179.463L212.731 191.828Z" fill="#F27E94"/>
<path d="M203.976 187.988L197.448 202.656L187.771 198.356L194.299 183.687L203.976 187.988Z" fill="#EA7180"/>
<path d="M133.933 186.375C136.544 186.375 138.848 183.764 141.383 184.225C144.147 184.763 145.069 188.295 147.373 189.831C151.213 192.289 157.28 188.602 160.505 191.751C161.964 193.133 162.348 195.514 164.115 196.436C165.958 197.357 168.339 196.129 170.182 197.05C172.486 198.125 172.332 201.735 170.489 203.424C168.723 205.191 166.035 205.575 163.5 205.805C152.979 206.65 126.177 209.261 119.419 198.509C117.115 194.746 117.038 184.455 120.571 181.46C126.714 176.392 128.327 186.299 133.933 186.375Z" fill="#72CAC8"/>
<path d="M264.722 250.271H96.9966C96.6894 250.271 96.459 250.501 96.459 250.808C96.459 251.115 96.6894 251.346 96.9966 251.346H264.722C265.03 251.346 265.26 251.115 265.26 250.808C265.26 250.501 265.03 250.271 264.722 250.271Z" fill="#394046"/>
<path d="M131.709 239.519C131.709 233.529 136.624 228.614 142.691 228.614C148.758 228.614 153.673 233.529 153.673 239.519C153.673 245.586 148.758 250.501 142.691 250.501C136.624 250.501 131.709 245.586 131.709 239.519Z" fill="#394046"/>
<path d="M136.087 239.519C136.087 235.909 139.082 232.914 142.692 232.914C146.378 232.914 149.296 235.909 149.296 239.519C149.296 243.205 146.378 246.2 142.692 246.2C139.082 246.2 136.087 243.205 136.087 239.519Z" fill="#FEFEFE"/>
<path d="M203.207 239.519C203.207 233.529 208.045 228.614 214.112 228.614C220.179 228.614 225.094 233.529 225.094 239.519C225.094 245.586 220.179 250.501 214.112 250.501C208.045 250.501 203.207 245.586 203.207 239.519Z" fill="#394046"/>
<path d="M207.506 239.519C207.506 235.909 210.501 232.914 214.11 232.914C217.796 232.914 220.715 235.909 220.715 239.519C220.715 243.205 217.796 246.2 214.11 246.2C210.501 246.2 207.506 243.205 207.506 239.519Z" fill="#FEFEFE"/>
<path d="M233.617 207.11V206.573H129.48C124.027 206.573 119.573 202.349 119.189 196.973V196.896L114.12 139.068H249.514L243.831 196.973C243.447 202.349 238.993 206.573 233.617 206.573V207.648C239.531 207.648 244.523 203.04 244.907 197.05H244.369L244.907 197.127L250.59 138.53C250.59 138.453 250.59 138.3 250.436 138.146C250.359 138.069 250.206 137.993 250.052 137.993H113.506C113.352 137.993 113.199 138.069 113.122 138.146C113.045 138.3 112.968 138.377 112.968 138.53L118.114 197.05L118.651 196.973L118.114 197.05C118.498 202.963 123.49 207.648 129.48 207.648H233.617V207.11Z" fill="#394046"/>
<path d="M128.404 138.53L129.019 207.11C129.019 207.418 129.249 207.648 129.556 207.648C129.787 207.648 130.094 207.341 130.094 207.11L129.479 138.53C129.479 138.223 129.249 137.993 128.942 137.993C128.635 137.993 128.404 138.223 128.404 138.53Z" fill="#394046"/>
<path d="M148.603 138.53V207.11C148.603 207.341 148.833 207.648 149.063 207.648C149.371 207.648 149.601 207.341 149.601 207.11V138.53C149.601 138.223 149.371 137.993 149.063 137.993C148.833 137.993 148.603 138.223 148.603 138.53Z" fill="#394046"/>
<path d="M168.726 138.53V207.11C168.726 207.341 168.956 207.648 169.264 207.648C169.571 207.648 169.801 207.341 169.801 207.11V138.53C169.801 138.223 169.571 137.993 169.264 137.993C168.956 137.993 168.726 138.223 168.726 138.53Z" fill="#394046"/>
<path d="M188.845 138.53V207.11C188.845 207.341 189.152 207.648 189.382 207.648C189.689 207.648 189.92 207.341 189.92 207.11V138.53C189.92 138.223 189.689 137.993 189.382 137.993C189.152 137.993 188.845 138.223 188.845 138.53Z" fill="#394046"/>
<path d="M209.043 138.53V207.11C209.043 207.341 209.273 207.648 209.581 207.648C209.888 207.648 210.118 207.341 210.118 207.11V138.53C210.118 138.223 209.888 137.993 209.581 137.993C209.273 137.993 209.043 138.223 209.043 138.53Z" fill="#394046"/>
<path d="M229.162 138.53V207.11C229.162 207.341 229.469 207.648 229.699 207.648C230.007 207.648 230.237 207.341 230.237 207.11V138.53C230.237 138.223 230.007 137.993 229.699 137.993C229.469 137.993 229.162 138.223 229.162 138.53Z" fill="#394046"/>
<path d="M114.504 149.051H248.977C249.284 149.051 249.514 148.821 249.514 148.514C249.514 148.207 249.284 147.976 248.977 147.976H114.504C114.197 147.976 113.967 148.207 113.967 148.514C113.967 148.821 114.197 149.051 114.504 149.051Z" fill="#394046"/>
<path d="M247.597 162.107H115.812C115.505 162.107 115.275 162.337 115.275 162.645C115.275 162.952 115.505 163.182 115.812 163.182H247.597C247.904 163.182 248.134 162.952 248.134 162.645C248.134 162.337 247.904 162.107 247.597 162.107Z" fill="#394046"/>
<path d="M246.214 176.238H117.04C116.733 176.238 116.503 176.468 116.503 176.699C116.503 177.006 116.733 177.236 117.04 177.236H246.214C246.521 177.236 246.751 177.006 246.751 176.699C246.751 176.468 246.521 176.238 246.214 176.238Z" fill="#394046"/>
<path d="M244.831 190.292H118.269C118.038 190.292 117.731 190.522 117.731 190.83C117.731 191.137 118.038 191.367 118.269 191.367H244.831C245.138 191.367 245.368 191.137 245.368 190.83C245.368 190.522 245.138 190.292 244.831 190.292Z" fill="#394046"/>
<path d="M94.9978 129.161L111.816 126.473L119.266 217.555H119.803H119.266C119.65 224.083 125.026 229.151 131.553 229.151H231.467C231.774 229.151 232.005 228.844 232.005 228.614C232.005 228.306 231.774 228.076 231.467 228.076H131.553C125.64 228.076 120.725 223.391 120.341 217.478L112.815 125.782C112.815 125.628 112.738 125.475 112.661 125.398C112.508 125.321 112.354 125.321 112.2 125.321L94.8442 128.086C94.537 128.163 94.3066 128.393 94.3834 128.7C94.4602 129.007 94.6906 129.238 94.9978 129.161Z" fill="#394046"/>
<path d="M265.72 189.754L259.884 181.46L265.951 177.159L271.787 185.453L265.72 189.754Z" fill="#EA7180"/>
<path d="M278.236 191.444L268.79 198.509L262.185 189.677L271.631 182.612L278.236 191.444Z" fill="#F3BD55"/>
<path d="M303.118 184.148L274.243 205.728L265.18 193.671L274.627 186.606L290.524 185.377C293.058 184.686 299.663 179.463 301.198 181.537L303.118 184.148Z" fill="#3D3B46"/>
<path d="M305.195 186.836L276.243 208.493L274.246 205.728L303.122 184.148L305.195 186.836Z" fill="#F3BD55"/>
<path d="M274.553 175.931L275.091 176.084C275.167 175.623 275.398 175.163 275.628 174.855C275.782 174.625 275.935 174.548 276.089 174.471C276.166 174.395 276.319 174.318 276.396 174.318H276.55C276.78 174.395 276.934 174.548 277.087 174.855C277.241 175.163 277.318 175.623 277.318 176.007C277.395 176.545 277.395 177.159 277.395 177.774C277.395 181.153 276.703 184.839 274.784 187.22L275.244 187.527L275.628 187.22C274.707 185.837 274.323 183.841 274.323 181.69C274.323 179.694 274.63 177.697 275.091 176.084L274.553 175.931L274.016 175.777C273.632 177.467 273.248 179.617 273.248 181.69C273.248 183.917 273.632 186.145 274.784 187.834C274.86 187.988 275.014 188.065 275.244 188.065C275.398 188.065 275.551 187.988 275.628 187.911C277.779 185.146 278.47 181.306 278.47 177.774C278.47 177.159 278.47 176.468 278.393 175.854C278.393 175.393 278.316 174.932 278.086 174.471C277.855 173.934 277.471 173.473 276.857 173.319C276.703 173.319 276.55 173.243 276.396 173.243C276.089 173.243 275.782 173.396 275.475 173.55C275.091 173.78 274.784 174.164 274.553 174.548C274.323 174.932 274.169 175.393 274.016 175.777L274.553 175.931Z" fill="#394046"/>
<path d="M283.307 179.156L283.537 179.617C283.998 179.31 284.689 179.079 285.15 179.156C285.304 179.156 285.457 179.156 285.534 179.233C285.688 179.233 285.765 179.31 285.841 179.463C285.841 179.54 285.918 179.617 285.918 179.771C285.918 180.155 285.611 180.692 285.227 181.153C282.923 183.994 279.16 186.913 275.551 187.45L275.627 187.988L276.165 188.065C276.472 186.452 277.547 184.762 278.93 183.303C280.389 181.767 282.078 180.539 283.537 179.617L283.307 179.156L283 178.695C281.464 179.617 279.698 180.999 278.162 182.535C276.702 184.148 275.474 185.914 275.09 187.834C275.09 188.065 275.167 188.218 275.243 188.295C275.397 188.449 275.551 188.526 275.704 188.449C279.774 187.911 283.614 184.839 286.072 181.844C286.456 181.307 286.917 180.615 286.993 179.771C286.993 179.463 286.917 179.156 286.763 178.926C286.533 178.619 286.302 178.388 285.995 178.235C285.765 178.081 285.457 178.081 285.15 178.081C284.382 178.081 283.614 178.388 283 178.695L283.307 179.156Z" fill="#394046"/>
<path d="M262.109 188.986L193.068 136.764L203.129 126.089C207.89 121.02 215.954 120.79 221.022 125.551L272.093 177.927L262.109 188.986Z" fill="#5064AC"/>
<path d="M262.416 184.379L204.28 138.223C204.049 138.07 203.819 138.07 203.665 138.3C203.589 138.454 203.589 138.684 203.742 138.838L261.878 184.993C262.108 185.147 262.339 185.07 262.492 184.916C262.646 184.763 262.569 184.455 262.416 184.379Z" fill="#FEFEFE"/>
</svg>
