<svg width="444" height="371" viewBox="0 0 444 371" fill="none" xmlns="http://www.w3.org/2000/svg">
<path d="M34.4709 240.434C36.7565 204.445 79.2892 171.33 115.221 130.337C114.584 145.753 115.637 158.226 116.35 159.489C119.204 164.604 171.953 170.296 186.559 156.99C188.845 154.908 190.923 130.434 185.534 107.446C189.468 108.882 193.846 110.055 197.731 110.111C197.821 113.915 192.883 169.414 189.815 183.359C191.782 186.878 211.881 190.258 225.512 190.258C239.142 190.258 259.248 186.878 261.215 183.359C258.119 169.414 253.202 113.915 253.299 110.111C263.508 109.986 277.083 102.101 277.083 102.101C277.083 102.101 271.417 86.1995 267.303 75.5312C268.492 74.7783 269.473 73.7378 270.155 72.5055C270.838 71.2732 271.201 69.8887 271.209 68.4792C271.162 66.1829 270.208 63.9991 268.557 62.4065C266.905 60.814 264.691 59.9426 262.4 59.9835C261.092 59.9782 259.799 60.2601 258.612 60.8093C257.425 61.3586 256.373 62.1618 255.529 63.1625C249.046 61.1843 240.673 58.8938 239.003 57.3113C235.914 60.2681 229.445 62.2463 225.512 62.2463C221.578 62.2463 215.122 60.2681 212.02 57.3113C210.343 58.9077 201.818 61.226 195.307 63.218C193.647 61.7166 191.49 60.8878 189.254 60.8928C188.116 60.8698 186.985 61.072 185.925 61.4878C184.865 61.9037 183.898 62.525 183.078 63.3161C182.259 64.1072 181.603 65.0527 181.148 66.0983C180.694 67.1439 180.45 68.269 180.43 69.4093C180.432 70.9629 180.874 72.484 181.704 73.796C181.282 74.4901 180.645 75.5521 179.855 76.9611C178.271 75.9924 176.626 75.1276 174.931 74.3721C175.25 73.6534 175.433 72.8814 175.471 72.0955C175.471 67.9309 172.901 59.0604 171.059 52.3207C187.848 27.6249 204.145 7.63499 224.445 1.84625C261.582 -8.78727 311.858 27.9997 345.526 74.1986C361.802 96.5345 374.151 121.078 381.022 145.44C376.049 143.941 371.325 142.421 370.12 141.276C367.024 144.233 360.562 146.204 356.628 146.204C352.694 146.204 346.239 144.233 343.136 141.276C340.463 143.809 320.502 148.175 318.819 150.146C317.136 152.118 305.043 186.066 305.043 186.066C305.043 186.066 318.639 193.958 328.841 194.103C328.938 197.907 323.993 253.4 320.924 267.344C322.448 270.072 334.86 272.716 346.71 273.771C327.213 291.964 302.383 306.984 276.459 319.061C246.158 333.165 214.298 343.271 182.605 344.965V341.55H170.311V345.194C155.723 345.004 141.239 342.715 127.3 338.398C78.1325 323.073 31.8598 280.011 34.4709 240.434Z" fill="#FAE8CB"/>
<path d="M91.6937 139.985L125.666 167.971C125.859 168.132 125.998 168.349 126.064 168.593C126.13 168.837 126.12 169.094 126.034 169.332C125.949 169.569 125.792 169.774 125.587 169.92C125.381 170.065 125.135 170.143 124.883 170.143H56.9527C56.6985 170.149 56.449 170.075 56.2386 169.932C56.0282 169.789 55.8673 169.584 55.7783 169.345C55.6893 169.106 55.6765 168.846 55.7418 168.6C55.807 168.353 55.947 168.134 56.1424 167.971L90.0799 140.02C90.2998 139.82 90.584 139.707 90.8803 139.701C91.1767 139.694 91.4655 139.795 91.6937 139.985V139.985Z" stroke="#394046" stroke-width="2" stroke-linecap="round" stroke-linejoin="round"/>
<path d="M101.549 129.15C101.575 128.434 101.457 127.721 101.201 127.052C100.946 126.383 100.558 125.772 100.062 125.257C99.566 124.741 98.9713 124.331 98.3135 124.051C97.6557 123.771 96.9484 123.627 96.2337 123.627C95.519 123.627 94.8117 123.771 94.1539 124.051C93.4961 124.331 92.9014 124.741 92.4052 125.257C91.9091 125.772 91.5217 126.383 91.2661 127.052C91.0106 127.721 90.8922 128.434 90.918 129.15" stroke="#394046" stroke-width="2" stroke-linecap="round" stroke-linejoin="round"/>
<path d="M90.918 139.707V129.15" stroke="#394046" stroke-width="2" stroke-linecap="round" stroke-linejoin="round"/>
<path d="M202.42 118.051C200.952 119.544 186.116 128.234 183.325 128.97C180.534 129.705 169.037 105.71 169.037 105.71L188.028 94.3967C192.585 96.479 204.477 107.21 202.42 118.051Z" fill="#E49D75"/>
<path d="M267.213 139.985L301.151 167.936C301.348 168.095 301.49 168.312 301.559 168.556C301.627 168.8 301.618 169.06 301.533 169.299C301.448 169.537 301.291 169.744 301.083 169.889C300.876 170.034 300.628 170.111 300.375 170.109H232.444C232.193 170.107 231.949 170.028 231.744 169.882C231.539 169.736 231.384 169.531 231.299 169.294C231.214 169.057 231.205 168.8 231.271 168.557C231.337 168.314 231.476 168.097 231.669 167.936L265.606 139.985C265.83 139.792 266.115 139.687 266.41 139.687C266.705 139.687 266.99 139.792 267.213 139.985Z" stroke="#394046" stroke-width="2" stroke-linecap="round" stroke-linejoin="round"/>
<path d="M277.083 129.15C277.109 128.434 276.99 127.721 276.735 127.052C276.479 126.383 276.092 125.772 275.595 125.257C275.099 124.741 274.505 124.331 273.847 124.051C273.189 123.771 272.482 123.627 271.767 123.627C271.052 123.627 270.345 123.771 269.687 124.051C269.029 124.331 268.435 124.741 267.938 125.257C267.442 125.772 267.055 126.383 266.799 127.052C266.544 127.721 266.425 128.434 266.451 129.15" stroke="#394046" stroke-width="2" stroke-linecap="round" stroke-linejoin="round"/>
<path d="M266.437 139.707V129.15" stroke="#394046" stroke-width="2" stroke-linecap="round" stroke-linejoin="round"/>
<path d="M412.41 350.302V126.485H31.465V350.302" stroke="#E5E6E5" stroke-width="3" stroke-linecap="round" stroke-linejoin="round"/>
<path d="M148.182 2.77637C136.678 2.77637 127.37 15.1174 127.37 29.0825C127.37 32.3864 128.277 39.6744 127.771 44.2623C126.788 53.2439 114.868 66.8065 114.868 76.975C114.868 95.66 139.975 96.9926 148.182 96.9926C156.39 96.9926 175.27 78.3007 175.27 71.8109C175.27 65.3211 169.037 47.476 169.037 43.9431C169.037 40.4101 160.268 2.77637 148.182 2.77637Z" fill="black"/>
<path d="M184.599 159.086V341.952H168.67L148.259 254.038C148.259 254.038 146.139 149.23 184.599 159.086Z" fill="#476AB0"/>
<path d="M157.955 74.8372C150.336 82.4722 164.41 112.526 169.556 113.096C173.019 113.484 193.839 96.8816 193.866 92.2728C193.901 84.8877 168.109 64.7243 157.955 74.8372Z" fill="#FFC78E"/>
<path d="M118.587 160.953V341.952H136.173L170.969 162.744C170.969 159.163 121.94 157.559 118.587 160.953Z" fill="#5064AC"/>
<path d="M145.869 66.5706C109.604 66.5706 114.217 156.143 116.198 159.704C119.052 164.813 171.8 170.504 186.407 157.198C190.798 153.207 194.427 66.5706 145.869 66.5706Z" fill="#F3BD55"/>
<path d="M225.602 190.001C211.964 190.001 191.865 186.621 189.898 183.102C192.994 169.151 197.911 113.658 197.814 109.854C187.605 109.715 174.016 101.823 174.016 101.823C174.016 101.823 186.102 67.8823 187.792 65.9389C189.482 63.9954 209.436 59.5948 212.11 57.0614C215.199 60.0182 221.668 61.9895 225.602 61.9895C229.536 61.9895 235.991 60.0182 239.093 57.0614C241.76 59.5671 261.721 63.9329 263.411 65.9389C265.101 67.9448 277.18 101.851 277.18 101.851C277.18 101.851 263.598 109.743 253.382 109.882C253.292 113.686 258.23 169.178 261.298 183.13C259.331 186.621 239.232 190.001 225.602 190.001Z" fill="#4FBCB0"/>
<path d="M356.434 274.278C342.804 274.278 322.704 270.898 320.737 267.379C323.826 253.434 328.744 197.935 328.654 194.131C318.438 193.992 304.856 186.107 304.856 186.107C304.856 186.107 316.942 152.159 318.639 150.188C320.336 148.217 340.29 143.851 342.956 141.311C346.052 144.267 352.514 146.246 356.448 146.246C360.382 146.246 366.837 144.267 369.94 141.311C372.613 143.851 392.574 148.217 394.257 150.188C395.94 152.159 407.985 186.107 407.985 186.107C407.985 186.107 394.403 193.992 384.187 194.131C384.09 197.935 389.035 253.434 392.103 267.379C390.171 270.898 370.072 274.278 356.434 274.278Z" fill="#F26E63"/>
<path d="M309.088 139.985L343.025 167.936C343.222 168.095 343.365 168.312 343.434 168.556C343.502 168.8 343.493 169.06 343.408 169.298C343.323 169.537 343.165 169.743 342.958 169.889C342.75 170.034 342.503 170.111 342.25 170.108H274.312C274.061 170.107 273.817 170.027 273.612 169.882C273.407 169.736 273.252 169.531 273.167 169.294C273.082 169.057 273.072 168.799 273.138 168.556C273.205 168.314 273.344 168.097 273.537 167.936L307.474 139.985C307.698 139.79 307.985 139.683 308.281 139.683C308.577 139.683 308.864 139.79 309.088 139.985Z" stroke="#394046" stroke-width="2" stroke-linecap="round" stroke-linejoin="round"/>
<path d="M318.944 129.15C318.969 128.434 318.851 127.721 318.595 127.052C318.34 126.383 317.953 125.772 317.456 125.257C316.96 124.741 316.365 124.331 315.708 124.051C315.05 123.771 314.343 123.627 313.628 123.627C312.913 123.627 312.206 123.771 311.548 124.051C310.89 124.331 310.296 124.741 309.799 125.257C309.303 125.772 308.916 126.383 308.66 127.052C308.405 127.721 308.286 128.434 308.312 129.15" stroke="#394046" stroke-width="2" stroke-linecap="round" stroke-linejoin="round"/>
<path d="M308.312 139.707V129.15" stroke="#394046" stroke-width="2" stroke-linecap="round" stroke-linejoin="round"/>
<path d="M357.21 139.985L391.175 167.971C391.372 168.13 391.515 168.347 391.583 168.591C391.652 168.835 391.643 169.094 391.558 169.333C391.472 169.572 391.315 169.778 391.108 169.923C390.9 170.068 390.653 170.145 390.399 170.143H322.469C322.218 170.141 321.973 170.062 321.768 169.916C321.563 169.771 321.408 169.566 321.324 169.328C321.239 169.091 321.229 168.834 321.295 168.591C321.361 168.348 321.5 168.132 321.693 167.971L355.631 140.019C355.848 139.829 356.126 139.722 356.414 139.715C356.703 139.709 356.984 139.804 357.21 139.985Z" stroke="#394046" stroke-width="2" stroke-linecap="round" stroke-linejoin="round"/>
<path d="M367.066 129.15C367.091 128.434 366.973 127.721 366.717 127.052C366.462 126.383 366.075 125.772 365.578 125.257C365.082 124.741 364.488 124.331 363.83 124.051C363.172 123.771 362.465 123.627 361.75 123.627C361.035 123.627 360.328 123.771 359.67 124.051C359.012 124.331 358.418 124.741 357.921 125.257C357.425 125.772 357.038 126.383 356.782 127.052C356.527 127.721 356.408 128.434 356.434 129.15" stroke="#394046" stroke-width="2" stroke-linecap="round" stroke-linejoin="round"/>
<path d="M356.434 139.707V129.15" stroke="#394046" stroke-width="2" stroke-linecap="round" stroke-linejoin="round"/>
<path d="M170.103 364.677H207.85V361.033L183.817 350.302H170.103V364.677Z" fill="black"/>
<path d="M141.319 364.677H114.238L119.613 352.294H136.477L141.319 364.677Z" fill="black"/>
<path d="M170.519 341.952H183.498V350.302H170.519V341.952Z" fill="#E49D75"/>
<path d="M120.527 341.952H135.127V352.294H120.527V341.952Z" fill="#E49D75"/>
<path d="M136.277 44.5122C138.728 48.2534 140.695 68.0628 139.656 75.8089C141.097 77.8218 153.716 78.141 155.725 76.1351C154.686 72.7202 153.924 63.4401 154.561 57.3946C150.558 52.057 136.277 44.5122 136.277 44.5122Z" fill="#D38D6A"/>
<path d="M386.964 358.812V350.302H438.113V358.812" stroke="#394046" stroke-width="3" stroke-linecap="round" stroke-linejoin="round"/>
<path d="M5.89407 358.812V350.302H57.0427V358.812" stroke="#394046" stroke-width="3" stroke-linecap="round" stroke-linejoin="round"/>
<path d="M438.113 370.993C434.862 370.993 432.226 368.352 432.226 365.093C432.226 361.835 434.862 359.193 438.113 359.193C441.364 359.193 444 361.835 444 365.093C444 368.352 441.364 370.993 438.113 370.993Z" fill="#394046"/>
<path d="M386.964 370.993C383.713 370.993 381.077 368.352 381.077 365.093C381.077 361.835 383.713 359.193 386.964 359.193C390.216 359.193 392.851 361.835 392.851 365.093C392.851 368.352 390.216 370.993 386.964 370.993Z" fill="#394046"/>
<path d="M57.0428 370.993C53.7914 370.993 51.1557 368.352 51.1557 365.093C51.1557 361.835 53.7914 359.193 57.0428 359.193C60.2942 359.193 62.9299 361.835 62.9299 365.093C62.9299 368.352 60.2942 370.993 57.0428 370.993Z" fill="#394046"/>
<path d="M5.88713 370.993C2.63576 370.993 0 368.352 0 365.093C0 361.835 2.63576 359.193 5.88713 359.193C9.1385 359.193 11.7743 361.835 11.7743 365.093C11.7743 368.352 9.1385 370.993 5.88713 370.993Z" fill="#394046"/>
<path d="M150.606 100.435C152.518 102.136 159.299 111.229 160.615 112.818C162.09 110.298 180.617 74.3583 182.085 73.0464C183.554 71.7346 192.038 75.4549 192.364 77.9051C192.689 80.3552 183.187 123.063 170.56 137.431C168.87 139.346 160.393 139.568 158.26 139.235C156.127 138.902 131.421 116.941 130.216 114.692C129.011 112.443 150.606 100.435 150.606 100.435Z" fill="#E49D75"/>
<path d="M151.819 60.8651C140.144 60.8651 130.68 49.0191 130.68 34.4062C130.68 19.7934 140.144 7.94739 151.819 7.94739C163.493 7.94739 172.957 19.7934 172.957 34.4062C172.957 49.0191 163.493 60.8651 151.819 60.8651Z" fill="#E49D75"/>
<path d="M173.504 29.9779C175.27 13.5279 160.317 2.77637 148.182 2.77637C156.743 12.1327 163.621 29.4573 173.504 29.9779Z" fill="black"/>
<path d="M161.536 12.0771C162.852 14.1594 154.831 35.6 139.102 35.6C111.003 34.7046 147.081 -10.4601 161.536 12.0771Z" fill="black"/>
<path d="M135.099 42.2009C131.909 42.2009 129.323 39.6092 129.323 36.4122C129.323 33.2151 131.909 30.6234 135.099 30.6234C138.289 30.6234 140.875 33.2151 140.875 36.4122C140.875 39.6092 138.289 42.2009 135.099 42.2009Z" fill="#E49D75"/>
<path d="M189.136 77.8496C184.263 77.8496 180.312 74.0459 180.312 69.3539C180.312 64.6618 184.263 60.8582 189.136 60.8582C194.009 60.8582 197.96 64.6618 197.96 69.3539C197.96 74.0459 194.009 77.8496 189.136 77.8496Z" fill="#E49D75"/>
<path d="M116.842 79.8208C109.223 87.4558 123.297 117.51 128.436 118.079C131.899 118.468 152.726 101.865 152.747 97.2564C152.788 89.8365 127.003 69.6731 116.842 79.8208Z" fill="#F3BD55"/>
<path d="M262.206 77.0097C257.332 77.0097 253.382 73.2061 253.382 68.514C253.382 63.822 257.332 60.0183 262.206 60.0183C267.079 60.0183 271.029 63.822 271.029 68.514C271.029 73.2061 267.079 77.0097 262.206 77.0097Z" fill="#E49D75"/>
</svg>
